<?xml version="1.0" standalone="no"?>
<!DOCTYPE svg PUBLIC "-//W3C//DTD SVG 20010904//EN"
 "http://www.w3.org/TR/2001/REC-SVG-20010904/DTD/svg10.dtd">
<svg version="1.0" xmlns="http://www.w3.org/2000/svg"
 width="192.000000pt" height="192.000000pt" viewBox="0 0 192.000000 192.000000"
 preserveAspectRatio="xMidYMid meet">
<metadata>
Created by potrace 1.11, written by Peter Selinger 2001-2013
</metadata>
<g transform="translate(0.000000,192.000000) scale(0.100000,-0.100000)"
fill="#000000" stroke="none">
<path d="M948 1596 c-219 -63 -406 -320 -438 -604 -5 -47 -13 -89 -17 -93 -5
-4 -91 -66 -191 -138 -101 -72 -178 -133 -170 -135 7 -2 51 -13 98 -23 l85
-18 -75 -56 c-41 -30 -112 -81 -157 -113 -80 -55 -83 -59 -83 -96 0 -27 4 -38
13 -35 6 2 95 27 197 55 102 28 199 55 215 60 17 5 55 16 85 24 30 9 101 29
156 45 99 29 103 29 175 15 94 -18 130 -18 221 1 117 25 259 102 321 176 29
33 66 107 73 144 6 33 -20 125 -35 125 -4 0 -23 -28 -43 -63 -20 -35 -59 -86
-86 -114 -124 -124 -305 -149 -347 -49 -24 57 -21 62 51 80 167 42 307 150
379 292 28 56 30 66 30 179 0 105 -3 126 -23 167 -33 66 -106 134 -172 160
-68 26 -196 33 -262 14z m109 -228 c-3 -40 -13 -102 -22 -138 -21 -80 -89
-230 -105 -230 -8 0 -10 9 -7 23 4 12 9 42 13 67 17 117 94 350 116 350 7 0 9
-24 5 -72z"/>
</g>
</svg>
